<svg xmlns="http://www.w3.org/2000/svg" viewBox="0 0 800 500">
  <defs>
    <linearGradient id="hero" x1="0" y1="0" x2="1" y2="1">
      <stop offset="0" stop-color="#2a1a21"/>
      <stop offset="1" stop-color="#141214"/>
    </linearGradient>
    <linearGradient id="room" x1="0" y1="0" x2="0" y2="1">
      <stop offset="0" stop-color="#262426"/>
      <stop offset="1" stop-color="#18171a"/>
    </linearGradient>
  </defs>
  <rect width="800" height="500" fill="#0d0d0d"/>
  <!-- browser bar -->
  <rect x="0" y="0" width="800" height="34" fill="#151515"/>
  <circle cx="22" cy="17" r="5" fill="#3a3a3a"/><circle cx="40" cy="17" r="5" fill="#3a3a3a"/><circle cx="58" cy="17" r="5" fill="#3a3a3a"/>
  <rect x="300" y="10" width="200" height="14" rx="7" fill="#222"/>
  <!-- nav -->
  <rect x="40" y="52" width="22" height="22" rx="6" fill="#c63d6e"/>
  <rect x="70" y="58" width="74" height="11" rx="5" fill="#e8e8e8"/>
  <g fill="#444"><rect x="470" y="60" width="50" height="7" rx="3.5"/><rect x="536" y="60" width="56" height="7" rx="3.5"/><rect x="608" y="60" width="46" height="7" rx="3.5"/></g>
  <rect x="680" y="50" width="80" height="26" rx="13" fill="#171717" stroke="#d9467a" stroke-opacity=".6"/>
  <!-- hero banner with building -->
  <rect x="40" y="92" width="720" height="168" rx="14" fill="url(#hero)" stroke="#262626"/>
  <g fill="#1e1c1e" stroke="#2e2b2e">
    <rect x="530" y="120" width="120" height="140"/>
    <rect x="650" y="150" width="70" height="110"/>
  </g>
  <g fill="#f08aaa" fill-opacity=".55">
    <rect x="546" y="136" width="16" height="12" rx="2"/><rect x="574" y="136" width="16" height="12" rx="2" fill-opacity=".2"/><rect x="602" y="136" width="16" height="12" rx="2"/><rect x="630" y="136" width="10" height="12" rx="2" fill-opacity=".2"/>
    <rect x="546" y="164" width="16" height="12" rx="2" fill-opacity=".2"/><rect x="574" y="164" width="16" height="12" rx="2"/><rect x="602" y="164" width="16" height="12" rx="2"/><rect x="630" y="164" width="10" height="12" rx="2"/>
    <rect x="546" y="192" width="16" height="12" rx="2"/><rect x="574" y="192" width="16" height="12" rx="2" fill-opacity=".2"/><rect x="602" y="192" width="16" height="12" rx="2" fill-opacity=".2"/><rect x="630" y="192" width="10" height="12" rx="2"/>
    <rect x="664" y="168" width="14" height="10" rx="2"/><rect x="690" y="168" width="14" height="10" rx="2" fill-opacity=".2"/>
    <rect x="664" y="192" width="14" height="10" rx="2" fill-opacity=".2"/><rect x="690" y="192" width="14" height="10" rx="2"/>
  </g>
  <rect x="576" y="226" width="28" height="34" rx="3" fill="#d9467a" fill-opacity=".35"/>
  <rect x="72" y="126" width="80" height="9" rx="4.5" fill="#f08aaa"/>
  <rect x="72" y="148" width="260" height="22" rx="6" fill="#f0f0f0"/>
  <rect x="72" y="178" width="190" height="22" rx="6" fill="#f0f0f0"/>
  <rect x="72" y="212" width="230" height="8" rx="4" fill="#4a4a4a"/>
  <!-- booking bar -->
  <rect x="72" y="236" width="420" height="44" rx="12" fill="#121212" stroke="#2c2c2c"/>
  <g fill="#3a3a3a"><rect x="90" y="254" width="80" height="8" rx="4"/><rect x="196" y="254" width="80" height="8" rx="4"/><rect x="302" y="254" width="60" height="8" rx="4"/></g>
  <g stroke="#2c2c2c"><line x1="184" y1="246" x2="184" y2="270"/><line x1="290" y1="246" x2="290" y2="270"/></g>
  <rect x="384" y="244" width="98" height="28" rx="14" fill="#c63d6e"/>
  <!-- room cards -->
  <g>
    <rect x="40" y="306" width="230" height="170" rx="12" fill="#121212" stroke="#262626"/>
    <rect x="285" y="306" width="230" height="170" rx="12" fill="#121212" stroke="#262626"/>
    <rect x="530" y="306" width="230" height="170" rx="12" fill="#121212" stroke="#d9467a" stroke-opacity=".6"/>
    <rect x="52" y="318" width="206" height="78" rx="8" fill="url(#room)"/>
    <rect x="297" y="318" width="206" height="78" rx="8" fill="url(#room)"/>
    <rect x="542" y="318" width="206" height="78" rx="8" fill="url(#room)"/>
    <!-- beds -->
    <g fill="#333"><rect x="120" y="358" width="70" height="26" rx="4"/><rect x="345" y="358" width="110" height="26" rx="4"/><rect x="580" y="352" width="130" height="32" rx="4"/></g>
    <g fill="#4a4a4a"><rect x="126" y="350" width="22" height="10" rx="3"/><rect x="352" y="350" width="22" height="10" rx="3"/><rect x="426" y="350" width="22" height="10" rx="3"/><rect x="590" y="344" width="26" height="11" rx="3"/><rect x="674" y="344" width="26" height="11" rx="3"/></g>
    <rect x="52" y="412" width="90" height="10" rx="5" fill="#ddd"/>
    <rect x="297" y="412" width="96" height="10" rx="5" fill="#ddd"/>
    <rect x="542" y="412" width="84" height="10" rx="5" fill="#ddd"/>
    <rect x="52" y="432" width="60" height="9" rx="4.5" fill="#f08aaa"/>
    <rect x="297" y="432" width="60" height="9" rx="4.5" fill="#f08aaa"/>
    <rect x="542" y="432" width="60" height="9" rx="4.5" fill="#f08aaa"/>
    <rect x="186" y="446" width="72" height="20" rx="10" fill="#d9467a" fill-opacity=".25"/>
    <rect x="431" y="446" width="72" height="20" rx="10" fill="#444"/>
    <rect x="676" y="446" width="72" height="20" rx="10" fill="#c63d6e"/>
  </g>
</svg>
